<?xml version="1.0" encoding="utf-8"?>
<!-- Generator: Adobe Illustrator 21.0.0, SVG Export Plug-In . SVG Version: 6.00 Build 0)  -->
<svg version="1.1" id="Layer_1" xmlns="http://www.w3.org/2000/svg" xmlns:xlink="http://www.w3.org/1999/xlink" x="0px" y="0px"
	 viewBox="0 0 221 62" style="enable-background:new 0 0 221 62;" xml:space="preserve">
<style type="text/css">
	.st0{display:none;fill:#FF0000;}
	.st1{display:none;fill:#FFFFFF;}
	.st2{fill:#FFFFFF;}
	.st3{opacity:0.8;}
	.st4{fill:none;stroke:#FFFFFF;stroke-width:0.75;stroke-miterlimit:10;}
	.st5{fill-rule:evenodd;clip-rule:evenodd;fill:#2E3191;}
	.st6{fill-rule:evenodd;clip-rule:evenodd;fill:url(#SVGID_1_);}
	.st7{fill-rule:evenodd;clip-rule:evenodd;fill:#B8E4FA;}
	.st8{fill-rule:evenodd;clip-rule:evenodd;fill:#F9D4E4;}
	.st9{fill-rule:evenodd;clip-rule:evenodd;fill:#EB008B;}
	.st10{fill-rule:evenodd;clip-rule:evenodd;fill:#000010;}
	.st11{fill-rule:evenodd;clip-rule:evenodd;fill:#FFF100;}
	.st12{fill-rule:evenodd;clip-rule:evenodd;fill:#00ADEE;}
	.st13{fill-rule:evenodd;clip-rule:evenodd;fill:#FFFFFF;}
</style>
<rect x="-241" y="-42" class="st0" width="566" height="197"/>
<g>
	<g id="remo_1_">
		<g>
			<path class="st2" d="M27.2,33.1c-1.4,0.4-2.4,0.5-3,0.4c0.8,4.6,4.6,8.5,9.2,7.6c0.2,1.6-3.6,5.1-7.4,0.2c-2.8-3.6-3-8.2-2.9-8.4
				c-0.3-0.5-0.3-1.1-0.2-1.4c3,0.3,13.5-4.3,11.6-8.4c-0.9-1.9-5.3-2.2-9.4-1c-3,0.9-5.8,2.8-7.2,3.9c-3.5,2.6-4.1,5.8-3.4,6.4
				c1.3,1.1,3.5-0.9,3.5-0.9s0.8,0.6,0.3,1.3c-0.9,1.4-3.8,1.6-5.5-0.3c-2.8-3.2,0.5-8.2,6-10.8c5.6-2.7,14.9-3.4,16.8,1.2
				C37.3,26.7,31.5,31.8,27.2,33.1z M18.2,39.8C17,34,22.4,24.6,23.6,23.7c0,0,1.9-1.2,1.7-0.8c-1.9,4.5-3.7,9.6-3.8,15.6
				c-0.1,2.9,0.6,3,0.6,3C20.8,42.2,18.7,42.2,18.2,39.8z"/>
		</g>
		<g>
			<path class="st2" d="M80,31.9c-0.1,0.4-1.7,2.3-3.4,1.7c0.1-2.1-1.2-6.1-4-5.9c-1.3,0.1-2.1,1.1-1.5,2.6c-2.7-0.2-4,1.2-4.7,2.7
				c-1.3,2.1-2.7,3.6-4.2,4.5c-0.8,0.6,0-1.8,1.1-4.8c1-2-0.8-3.7-1.1-4c0,0-0.1-0.1-0.1-0.2c-0.7-0.5-1.4-1.9-3.9,1.6
				c-2.3,3.2-3.6,5.8-3.5,5.6c0.2-1,2.9-4.7-1.8-6.1c-1.5-0.5-4.6,5.9-6,7.8c0-0.9,1-2.4,1.7-4.4c0.6-1.3-0.6-2-1.5-2.4
				c-0.6-0.2-0.9,0-1.2,0.3c-0.2,0.4-0.3,0.9-0.5,1.3c-1.2,2.2-4.1,5.7-7.1,5.8c-1.8,0.1-2-2.3-1.4-4.3c0.8-2.7,2-3.8,3-3.9
				c1.1-0.2-0.2,4.5-1.3,5.3c-0.4,0.3-1,0.5-1.3,0.2c-0.6,0.7,0.6,1.6,2.1,1c2.4-0.9,3.9-5.5,1.8-7.2c-0.3-0.3-0.8-0.5-1.4-0.5
				c-2.6-0.2-5.9,2-6.2,6.3c-0.2,2.9,1.7,4.1,4.4,4.3c2.4,0.1,4.8-1.6,6.5-3.6c-0.2,1.2,0,2.3,0.8,3c0.2,0.2,0.4,0.3,0.6,0.4
				c0,0,0,0,0,0l0.1,0v0c1.2,0.2,1.8-1,1.8-1c1.5-2.1,4.4-7.3,4.9-6.9c0.4,0.4-0.8,3-1.3,6.1c-0.4,2.5,2.3,2.1,2.3,2.1
				s1.8-3.1,4.7-7.1c1.5-2.2,2.1-2.8,2.4-2.7c-0.8,2.5-4.1,9,0.2,9.5c1.8,0.2,3.6-1.4,5-3.3c0.4,3,3.2,3.5,5.1,3.5
				c2.2,0,4.8-2.6,5.2-4.7c1.9,0.5,4.1-0.9,4.1-2.3C80.5,32,80.1,31.6,80,31.9z M71.1,37.8c-1.2,0.2-1.7-1.3-1.7-2.4
				c0-1.7,0.8-3.7,2.2-4.1c0.1,0.6,0.9,1.9,2.3,2.5C73.5,35.4,72.8,37.5,71.1,37.8z M74.1,32.7c-1.4-0.7-1.8-1.8-1.8-3.4
				c0-0.4,0.1-0.7,0.6-0.7c1.3,0,1.3,2.3,1.3,3.3C74.1,32.2,74.1,32.5,74.1,32.7z"/>
		</g>
	</g>
	<g class="st3">
		<path class="st2" d="M56.3,40.2h1.5c0.4,0,0.5,0.2,0.5,0.6l0.4,9.8h-1.3L57,41.2h-0.3l-2.3,7.6c-0.1,0.3-0.3,0.5-0.6,0.5h-1.2
			c-0.3,0-0.5-0.2-0.6-0.5l-2.3-7.6h-0.3l-0.4,9.3h-1.3l0.4-9.8c0-0.4,0.2-0.6,0.6-0.6h1.5c0.3,0,0.5,0.2,0.6,0.5l1.9,6.3
			c0.1,0.2,0.1,0.4,0.2,0.8c0.1,0.4,0.1,0.6,0.2,0.6h0.3c0-0.1,0.1-0.3,0.2-0.7c0.1-0.3,0.2-0.6,0.2-0.8l1.9-6.3
			C55.8,40.3,56,40.2,56.3,40.2z"/>
		<path class="st2" d="M66.6,47.3h-4.3l-1,3.2H60l3.3-10c0.1-0.2,0.2-0.4,0.5-0.4h1.4c0.3,0,0.4,0.1,0.5,0.4l3.3,10h-1.4L66.6,47.3z
			 M66.3,46.1L64.9,42c-0.1-0.3-0.2-0.5-0.3-0.8h-0.4L64,42l-1.3,4.1H66.3z"/>
		<path class="st2" d="M71.8,50.5h-1.3V40.2h1.3V50.5z"/>
		<path class="st2" d="M75.7,40.2v8.3c0,0.7,0.3,1,1,1h3.7l0.1,1c-0.9,0.1-2.2,0.1-4,0.1c-1.4,0-2.1-0.6-2.1-1.9v-8.4H75.7z"/>
	</g>
</g>
<line class="st4" x1="100" y1="15" x2="100" y2="55"/>
<g>
	<path class="st5" d="M139.7,30.8h7.9v2.9h-3.2v2.8h3v2.8h-3v3.2h3.5v2.9h-8.2V30.8L139.7,30.8z M159.3,35.3h-4.4v-1.1
		c0-0.5-0.1-0.8-0.2-1c-0.1-0.1-0.3-0.2-0.6-0.2c-0.3,0-0.5,0.1-0.6,0.3c-0.1,0.2-0.2,0.5-0.2,0.8c0,0.5,0.1,0.9,0.3,1.1
		c0.2,0.2,0.6,0.5,1.3,0.9c2.1,1,3.4,1.8,4,2.5c0.5,0.6,0.8,1.7,0.8,3.1c0,1-0.2,1.8-0.5,2.3c-0.3,0.5-0.9,0.9-1.8,1.2
		c-0.9,0.3-1.9,0.5-3,0.5c-1.3,0-2.3-0.2-3.2-0.6c-0.9-0.4-1.5-0.9-1.8-1.5c-0.3-0.6-0.4-1.4-0.4-2.5v-1h4.4V42
		c0,0.5,0.1,0.9,0.2,1.1c0.1,0.2,0.3,0.2,0.7,0.2c0.3,0,0.5-0.1,0.7-0.3c0.2-0.2,0.2-0.5,0.2-0.9c0-0.9-0.1-1.4-0.4-1.7
		c-0.3-0.3-1-0.7-2.2-1.3c-1.2-0.6-2-1.1-2.3-1.4c-0.4-0.3-0.7-0.7-1-1.2c-0.2-0.5-0.4-1.1-0.4-1.9c0-1.1,0.2-1.9,0.5-2.5
		c0.4-0.5,0.9-0.9,1.7-1.2c0.8-0.3,1.8-0.4,2.9-0.4c1.2,0,2.3,0.2,3.1,0.5c0.9,0.3,1.4,0.7,1.7,1.2c0.3,0.5,0.4,1.3,0.4,2.5V35.3
		L159.3,35.3z M170.8,30.8v2.9H168v11.7h-4.8V33.7h-2.8v-2.9H170.8L170.8,30.8z M179.1,30.8h-6.9l-2.4,14.7h4.9l0.3-2.6h1.7l0.3,2.6
		h4.8L179.1,30.8L179.1,30.8z M176.6,40.2H175c0.1-1.3,0.4-3.4,0.9-6.2C176.2,36.5,176.4,38.6,176.6,40.2L176.6,40.2z M188.6,45.8
		v0.2c0.4,0,0.8,0.1,1.1,0.3c0.3,0.2,0.5,0.5,0.5,0.9c0,0.5-0.2,0.9-0.7,1.2c-0.5,0.3-1,0.5-1.7,0.5c-1.2,0-1.9-0.5-2.2-1.4h1.7
		c0.1,0.2,0.3,0.4,0.6,0.4c0.2,0,0.4,0,0.5-0.1c0.1-0.1,0.2-0.2,0.2-0.4c0-0.2-0.1-0.3-0.2-0.4c-0.2-0.1-0.4-0.1-0.7-0.1h-0.3v-0.9
		c-1.3-0.1-2.3-0.4-3-0.8c-0.7-0.5-1.2-1-1.4-1.7c-0.2-0.7-0.3-1.6-0.3-2.9V36c0-1.1,0-1.8,0.1-2.4c0.1-0.5,0.4-1,0.8-1.5
		c0.4-0.5,1.1-0.9,1.9-1.2c0.8-0.3,1.7-0.4,2.7-0.4c1.4,0,2.5,0.2,3.5,0.7c0.9,0.4,1.5,1,1.8,1.6c0.3,0.6,0.4,1.7,0.4,3v1.4H189
		v-2.5c0-0.7,0-1.2-0.1-1.4c-0.1-0.2-0.3-0.3-0.7-0.3c-0.4,0-0.6,0.1-0.7,0.3c-0.1,0.2-0.2,0.7-0.2,1.4v6.8c0,0.7,0.1,1.2,0.2,1.4
		c0.1,0.2,0.3,0.3,0.7,0.3c0.4,0,0.6-0.1,0.7-0.3c0.1-0.2,0.2-0.7,0.2-1.5v-1.8h4.8v0.6c0,1.4-0.1,2.4-0.3,3
		c-0.2,0.6-0.7,1.2-1.6,1.7C191,45.4,189.9,45.7,188.6,45.8L188.6,45.8z M203.6,30.8l2.7,14.7h-4.8l-0.3-2.6h-1.7l-0.3,2.6h-4.9
		l2.4-14.7H203.6L203.6,30.8z M201.1,40.2c-0.2-1.7-0.5-3.7-0.7-6.2c-0.5,2.8-0.8,4.9-0.9,6.2H201.1L201.1,40.2z M205,28.6
		c-0.3,0.6-0.8,1-1.3,1.3c-0.5,0.2-0.9,0.4-1.3,0.4c-0.5,0-1.1-0.1-1.7-0.3l-0.8-0.3c-0.5-0.2-0.9-0.3-1.2-0.3c-0.6,0-1,0.3-1.4,0.9
		l-1.8-1c0.8-1.2,1.8-1.8,2.8-1.8c0.5,0,1.1,0.1,1.8,0.3l0.7,0.2c0.6,0.2,1,0.3,1.2,0.3c0.6,0,1-0.3,1.2-0.8L205,28.6L205,28.6z
		 M218,39.4c0,1.5,0,2.5-0.1,3.1c-0.1,0.6-0.4,1.2-0.8,1.7c-0.5,0.5-1.1,0.9-1.8,1.2c-0.8,0.3-1.7,0.4-2.7,0.4c-1,0-1.8-0.1-2.6-0.4
		c-0.8-0.3-1.4-0.6-1.9-1.2c-0.5-0.5-0.8-1.1-0.8-1.7c-0.1-0.6-0.1-1.7-0.1-3.2v-2.5c0-1.5,0-2.5,0.1-3.1c0.1-0.6,0.4-1.2,0.8-1.7
		c0.5-0.5,1.1-0.9,1.8-1.2c0.8-0.3,1.7-0.4,2.7-0.4c1,0,1.8,0.1,2.6,0.4s1.4,0.6,1.9,1.2c0.5,0.5,0.8,1.1,0.8,1.7
		c0.1,0.6,0.1,1.7,0.1,3.2V39.4L218,39.4z M213.2,34.6c0-0.7,0-1.1-0.1-1.3c-0.1-0.2-0.3-0.3-0.6-0.3c-0.2,0-0.4,0.1-0.6,0.2
		c-0.1,0.2-0.2,0.6-0.2,1.4v6.8c0,0.8,0,1.4,0.1,1.6c0.1,0.2,0.3,0.3,0.6,0.3c0.3,0,0.5-0.1,0.6-0.3s0.1-0.8,0.1-1.6V34.6z"/>
	<linearGradient id="SVGID_1_" gradientUnits="userSpaceOnUse" x1="178.8613" y1="35.0376" x2="178.8613" y2="45.7791">
		<stop  offset="0" style="stop-color:#D0D2D3"/>
		<stop  offset="1" style="stop-color:#2E3191"/>
	</linearGradient>
	<path class="st6" d="M147.4,36.7v2.6h-3v3.2h3.5v2.9h-8.2v-8.7C142.6,37.3,145.1,37.1,147.4,36.7L147.4,36.7z M218,36.7
		c-1.6,0.6-3.1,1-4.7,1.3v3.3c0,0.9,0,1.4-0.1,1.6c-0.1,0.2-0.3,0.3-0.6,0.3c-0.3,0-0.5-0.1-0.6-0.3c-0.1-0.2-0.1-0.7-0.1-1.6v-3.2
		c-1.2,0.1-2.4,0.2-3.7,0.2c-0.3,0-0.7,0-1,0v1.1c0,1.5,0,2.6,0.1,3.2c0.1,0.6,0.4,1.2,0.8,1.7c0.5,0.5,1.1,0.9,1.9,1.2
		c0.7,0.2,1.5,0.4,2.3,0.4h0.7c0.9,0,1.7-0.2,2.4-0.4c0.8-0.3,1.4-0.7,1.8-1.2c0.5-0.5,0.7-1.1,0.8-1.7c0.1-0.6,0.1-1.7,0.1-3.1
		v-2.5L218,36.7L218,36.7z M205,38.1c-1.4-0.2-2.8-0.6-4.3-1c0.1,1.2,0.3,2.2,0.4,3.1h-1.6c0.1-0.8,0.2-1.9,0.4-3.3
		c-1.3-0.4-2.6-0.7-4-1l-1.6,9.5h4.9l0.3-2.6h1.7l0.2,2.6h4.9L205,38.1L205,38.1z M193.7,35.7c-0.9-0.1-1.8-0.1-2.8,0
		c-0.6,0-1.3,0.1-1.9,0.2v1.3h4.7v-1.4C193.7,35.8,193.7,35.7,193.7,35.7L193.7,35.7z M187.3,36.2v5.3c0,0.7,0.1,1.2,0.2,1.4
		c0.1,0.2,0.3,0.3,0.7,0.3c0.4,0,0.6-0.1,0.7-0.3c0.1-0.2,0.2-0.7,0.2-1.5v-1.8h4.7v0.6c0,1.4-0.1,2.4-0.3,3
		c-0.2,0.6-0.7,1.2-1.6,1.7c-0.8,0.5-1.9,0.8-3.3,0.9v0h-1.3v0c-1.3-0.1-2.3-0.4-3-0.8c-0.7-0.5-1.2-1-1.4-1.7
		c-0.2-0.7-0.3-1.6-0.3-2.9v-2.8C184.1,37.1,185.7,36.6,187.3,36.2L187.3,36.2z M180.5,38c-1.3,0.3-2.6,0.4-3.9,0.4c0,0-0.1,0-0.1,0
		c0.1,0.7,0.2,1.3,0.3,1.9H175c0-0.5,0.1-1.2,0.2-2c-1.5-0.1-2.8-0.4-4.1-0.7l-1.3,7.9h4.9l0.3-2.6h1.7l0.2,2.6h4.9L180.5,38
		L180.5,38z M168,36.7c-1.5-0.5-3.1-0.9-4.7-1.2v10h4.7V36.7L168,36.7z M159.4,35.1c-1.4,0-2.7,0.1-3.9,0.2h3.9V35.1L159.4,35.1z
		 M153.8,35.5c-1.6,0.3-3.1,0.6-4.6,0.9c0,0.1,0.1,0.1,0.1,0.2c0.2,0.5,0.6,0.9,0.9,1.2c0.4,0.3,1.2,0.7,2.3,1.4
		c1.2,0.6,1.9,1.1,2.2,1.3c0.3,0.3,0.4,0.8,0.4,1.7c0,0.4-0.1,0.7-0.2,0.9c-0.2,0.2-0.4,0.3-0.7,0.3c-0.3,0-0.5-0.1-0.7-0.2
		c-0.1-0.2-0.2-0.5-0.2-1.1v-1.8h-4.4v1c0,1.1,0.1,1.9,0.4,2.5c0.3,0.6,0.9,1.1,1.8,1.5c0.8,0.4,1.8,0.5,2.9,0.6h0.7
		c1,0,1.9-0.2,2.7-0.5c0.9-0.3,1.5-0.8,1.8-1.2c0.3-0.5,0.5-1.3,0.5-2.3c0-1.4-0.3-2.5-0.8-3.1c-0.5-0.6-1.9-1.5-4-2.5
		C154.4,35.9,154.1,35.7,153.8,35.5z"/>
	<path class="st7" d="M141.5,22.9c1.9-1.2,3.2-3.1,2.5-5.2c-0.7-2.1-3.1-3.2-5.2-2.5c-1.1,0.4-1.9,1.2-2.4,2.2
		c-1.5,3-0.8,8.6-0.3,11.8c0.1,0,0.3,0,0.5-0.1C137.2,26.3,140,23.9,141.5,22.9z"/>
	<path class="st8" d="M149.8,21.6c-1.1-0.5-2.2-0.4-3.2-0.1c-3.2,1.1-6.7,5.5-8.5,8.2c0.1,0.1,0.2,0.2,0.4,0.3
		c2.5-1.6,6.2-1.4,7.9-1c2.2,0.4,4.4,0.1,5.4-1.9C152.7,25,151.8,22.6,149.8,21.6z"/>
	<path class="st9" d="M134.9,30c-1.6-2.5-1.2-6.2-0.9-8c0.5-2.2,0.2-4.4-1.8-5.4c-2-1-4.4-0.2-5.4,1.8c-0.5,1-0.5,2.2-0.2,3.2
		c1,3.2,5.3,6.8,8,8.7C134.7,30.2,134.8,30.1,134.9,30z"/>
	<path class="st10" d="M131.7,40.5c-1.9,1.2-3.3,3-2.6,5.1c0.7,2.1,3,3.3,5.1,2.6c1.1-0.4,1.9-1.2,2.4-2.2c1.6-3,1-8.5,0.5-11.7
		c-0.2,0-0.3,0-0.5,0C136,37.2,133.1,39.6,131.7,40.5z"/>
	<path class="st11" d="M134.9,33.6c-2.5,1.6-6.2,1.2-7.9,0.9c-2.2-0.5-4.4-0.2-5.4,1.8c-1,2-0.2,4.4,1.8,5.4c1,0.5,2.2,0.5,3.2,0.2
		c3.2-1,6.8-5.3,8.7-7.9C135.1,33.8,135,33.7,134.9,33.6z"/>
	<path class="st12" d="M127.9,26.8c-1.2-1.9-3-3.3-5.1-2.6c-2.1,0.7-3.3,3-2.6,5.1c0.4,1.1,1.2,1.9,2.2,2.4c3,1.6,8.6,1,11.8,0.5
		c0-0.1,0-0.3,0-0.4C131.2,31.1,128.8,28.3,127.9,26.8z"/>
	<g>
		<path class="st13" d="M141.9,50.7h-0.3v3.6h0.3c0.1,0,0.2,0,0.2-0.1c0.1,0,0.1-0.1,0.2-0.1l0.8-1.3c0,0,0-0.1,0.1-0.1
			c0,0,0-0.1,0-0.2c0-0.1,0-0.1,0-0.2c0,0,0-0.1-0.1-0.1l-0.8-1.3c0-0.1-0.1-0.1-0.2-0.1C142.1,50.7,142,50.7,141.9,50.7L141.9,50.7
			z M141.9,50.1c0.2,0,0.5,0,0.6,0.1c0.2,0.1,0.3,0.2,0.5,0.5l0.8,1.3c0,0.1,0.1,0.2,0.1,0.2c0,0.1,0,0.2,0,0.3c0,0.1,0,0.2,0,0.3
			c0,0.1-0.1,0.2-0.1,0.2l-0.8,1.3c-0.1,0.2-0.3,0.4-0.5,0.4c-0.2,0.1-0.4,0.1-0.6,0.1h-1.4c-0.1,0-0.2,0-0.3-0.1
			c-0.1-0.1-0.1-0.1-0.1-0.2c0-0.1,0-0.2,0.1-0.2c0.1-0.1,0.2-0.1,0.3-0.1h0.3v-3.6h-0.3c-0.1,0-0.2,0-0.3-0.1
			c-0.1-0.1-0.1-0.1-0.1-0.2c0-0.1,0-0.2,0.1-0.2c0.1-0.1,0.2-0.1,0.3-0.1H141.9L141.9,50.1z M155.7,50.1c0.1,0,0.2,0,0.3,0.1
			c0.1,0.1,0.1,0.1,0.1,0.2c0,0.1,0,0.2-0.1,0.2c-0.1,0.1-0.2,0.1-0.3,0.1h-1.1v3.6h1.1c0.1,0,0.2,0,0.3,0.1
			c0.1,0.1,0.1,0.1,0.1,0.2c0,0.1,0,0.2-0.1,0.2c-0.1,0.1-0.2,0.1-0.3,0.1h-3c-0.1,0-0.2,0-0.3-0.1c-0.1-0.1-0.1-0.1-0.1-0.2
			c0-0.1,0-0.2,0.1-0.2c0.1-0.1,0.2-0.1,0.3-0.1h1.1v-3.6h-1.1c-0.1,0-0.2,0-0.3-0.1c-0.1-0.1-0.1-0.1-0.1-0.2c0-0.1,0-0.2,0.1-0.2
			c0.1-0.1,0.2-0.1,0.3-0.1H155.7L155.7,50.1z M166.8,50.1h1.1c0.1,0,0.2,0,0.3,0.1c0.1,0.1,0.1,0.1,0.1,0.2c0,0.1,0,0.2-0.1,0.2
			c-0.1,0.1-0.2,0.1-0.3,0.1h-1.1c-0.1,0-0.1,0-0.2,0c-0.1,0-0.1,0-0.1,0.1l-1,1c-0.1,0.1-0.2,0.2-0.2,0.2c0,0.1,0,0.1,0,0.2V54
			c0,0.1,0,0.2,0.1,0.2c0.1,0.1,0.2,0.1,0.3,0.1h1.5c0.1,0,0.2,0,0.3-0.1c0.1-0.1,0.1-0.1,0.1-0.2v-0.6h-0.7c-0.1,0-0.2,0-0.3-0.1
			c-0.1-0.1-0.1-0.1-0.1-0.2c0-0.1,0-0.2,0.1-0.2s0.2-0.1,0.3-0.1h1.5V54c0,0.3-0.1,0.5-0.3,0.7c-0.2,0.2-0.5,0.3-0.8,0.3h-1.5
			c-0.3,0-0.6-0.1-0.8-0.3c-0.2-0.2-0.3-0.4-0.3-0.7v-1.7c0-0.1,0-0.3,0.1-0.4c0.1-0.1,0.2-0.3,0.4-0.5l0.9-1
			c0.1-0.1,0.2-0.2,0.4-0.3C166.4,50.1,166.6,50.1,166.8,50.1L166.8,50.1z M180.1,50.1c0.1,0,0.2,0,0.3,0.1c0.1,0.1,0.1,0.1,0.1,0.2
			c0,0.1,0,0.2-0.1,0.2c-0.1,0.1-0.2,0.1-0.3,0.1H179v3.6h1.1c0.1,0,0.2,0,0.3,0.1c0.1,0.1,0.1,0.1,0.1,0.2c0,0.1,0,0.2-0.1,0.2
			c-0.1,0.1-0.2,0.1-0.3,0.1h-3c-0.1,0-0.2,0-0.3-0.1c-0.1-0.1-0.1-0.1-0.1-0.2c0-0.1,0-0.2,0.1-0.2c0.1-0.1,0.2-0.1,0.3-0.1h1.1
			v-3.6h-1.1c-0.1,0-0.2,0-0.3-0.1c-0.1-0.1-0.1-0.1-0.1-0.2c0-0.1,0-0.2,0.1-0.2c0.1-0.1,0.2-0.1,0.3-0.1H180.1L180.1,50.1z
			 M188.8,50.1h3.9v0.8c0,0.1,0,0.2-0.1,0.3c-0.1,0.1-0.2,0.1-0.3,0.1c-0.1,0-0.2,0-0.3-0.1c-0.1-0.1-0.1-0.2-0.1-0.3v-0.2h-0.8v3.9
			c0,0.1,0,0.2-0.1,0.3c-0.1,0.1-0.2,0.1-0.3,0.1c-0.1,0-0.2,0-0.3-0.1c-0.1-0.1-0.1-0.2-0.1-0.3v-3.9h-0.8v0.2c0,0.1,0,0.2-0.1,0.3
			c-0.1,0.1-0.2,0.1-0.3,0.1c-0.1,0-0.2,0-0.3-0.1c-0.1-0.1-0.1-0.2-0.1-0.3V50.1L188.8,50.1z M202.9,51.5l-0.6,1.7h1.3L202.9,51.5
			L202.9,51.5z M203.4,50.4l1.5,4.1c0,0,0,0,0,0.1c0,0,0,0,0,0.1c0,0.1,0,0.2-0.1,0.2c-0.1,0.1-0.2,0.1-0.3,0.1
			c-0.1,0-0.2,0-0.2-0.1c-0.1,0-0.1-0.1-0.1-0.2l-0.3-0.8h-1.7l-0.3,0.8c0,0.1-0.1,0.2-0.2,0.2c-0.1,0-0.1,0.1-0.3,0.1
			c-0.1,0-0.2,0-0.3-0.1c-0.1-0.1-0.1-0.1-0.1-0.2c0,0,0-0.1,0-0.1c0,0,0,0,0-0.1l1.5-4.1c0-0.1,0.1-0.2,0.2-0.3
			c0.1-0.1,0.2-0.1,0.3-0.1c0.1,0,0.2,0,0.3,0.1C203.3,50.2,203.3,50.3,203.4,50.4L203.4,50.4z M214,50.4v3.9h2.7
			c0.1,0,0.2,0,0.3,0.1c0.1,0.1,0.1,0.1,0.1,0.2c0,0.1,0,0.2-0.1,0.2c-0.1,0.1-0.2,0.1-0.3,0.1h-3.4v-4.5c0-0.1,0-0.2,0.1-0.3
			c0.1-0.1,0.2-0.1,0.3-0.1c0.1,0,0.2,0,0.3,0.1C213.9,50.2,214,50.3,214,50.4z"/>
		<path class="st13" d="M202.9,53.9v-0.6h0.6l-0.6-1.7l0,0v-1.5h0c0.1,0,0.2,0,0.3,0.1c0.1,0,0.1,0.1,0.2,0.3l1.5,4.1c0,0,0,0,0,0.1
			c0,0,0,0,0,0.1c0,0.1,0,0.2-0.1,0.2c-0.1,0.1-0.2,0.1-0.3,0.1c-0.1,0-0.2,0-0.2-0.1c-0.1,0-0.1-0.1-0.1-0.2l-0.3-0.8H202.9
			L202.9,53.9z M214,50.4v3.9h2.7c0.1,0,0.2,0,0.3,0.1c0.1,0.1,0.1,0.1,0.1,0.2c0,0.1,0,0.2-0.1,0.2c-0.1,0.1-0.2,0.1-0.3,0.1h-3.4
			v-4.5c0-0.1,0-0.2,0.1-0.3c0.1-0.1,0.2-0.1,0.3-0.1c0.1,0,0.2,0,0.3,0.1C213.9,50.2,214,50.3,214,50.4z M142.4,53.9l0.7-1.1
			c0,0,0-0.1,0.1-0.1c0,0,0-0.1,0-0.2c0-0.1,0-0.1,0-0.2c0,0,0-0.1-0.1-0.1l-0.7-1.1v-1c0,0,0.1,0,0.1,0.1c0.2,0.1,0.3,0.2,0.5,0.5
			l0.8,1.3c0,0.1,0.1,0.2,0.1,0.2c0,0.1,0,0.2,0,0.3c0,0.1,0,0.2,0,0.3c0,0.1-0.1,0.2-0.1,0.2l-0.8,1.3c-0.1,0.2-0.3,0.4-0.5,0.4
			c0,0-0.1,0-0.1,0.1V53.9L142.4,53.9z M202.9,50.1v1.5l-0.6,1.7h0.6v0.6h-0.9l-0.3,0.8c0,0.1-0.1,0.2-0.2,0.2
			c-0.1,0-0.1,0.1-0.3,0.1c-0.1,0-0.2,0-0.3-0.1c-0.1-0.1-0.1-0.1-0.1-0.2c0,0,0-0.1,0-0.1c0,0,0,0,0-0.1l1.5-4.1
			c0-0.1,0.1-0.2,0.2-0.3C202.7,50.1,202.8,50.1,202.9,50.1L202.9,50.1z M155.7,50.1c0.1,0,0.2,0,0.3,0.1c0.1,0.1,0.1,0.1,0.1,0.2
			c0,0.1,0,0.2-0.1,0.2c-0.1,0.1-0.2,0.1-0.3,0.1h-1.1v3.6h1.1c0.1,0,0.2,0,0.3,0.1c0.1,0.1,0.1,0.1,0.1,0.2c0,0.1,0,0.2-0.1,0.2
			c-0.1,0.1-0.2,0.1-0.3,0.1h-3c-0.1,0-0.2,0-0.3-0.1c-0.1-0.1-0.1-0.1-0.1-0.2c0-0.1,0-0.2,0.1-0.2c0.1-0.1,0.2-0.1,0.3-0.1h1.1
			v-3.6h-1.1c-0.1,0-0.2,0-0.3-0.1c-0.1-0.1-0.1-0.1-0.1-0.2c0-0.1,0-0.2,0.1-0.2c0.1-0.1,0.2-0.1,0.3-0.1H155.7L155.7,50.1z
			 M166.8,50.1h1.1c0.1,0,0.2,0,0.3,0.1c0.1,0.1,0.1,0.1,0.1,0.2c0,0.1,0,0.2-0.1,0.2c-0.1,0.1-0.2,0.1-0.3,0.1h-1.1
			c-0.1,0-0.1,0-0.2,0c-0.1,0-0.1,0-0.1,0.1l-1,1c-0.1,0.1-0.2,0.2-0.2,0.2c0,0.1,0,0.1,0,0.2V54c0,0.1,0,0.2,0.1,0.2
			c0.1,0.1,0.2,0.1,0.3,0.1h1.5c0.1,0,0.2,0,0.3-0.1c0.1-0.1,0.1-0.1,0.1-0.2v-0.6h-0.7c-0.1,0-0.2,0-0.3-0.1
			c-0.1-0.1-0.1-0.1-0.1-0.2c0-0.1,0-0.2,0.1-0.2s0.2-0.1,0.3-0.1h1.5V54c0,0.3-0.1,0.5-0.3,0.7c-0.2,0.2-0.5,0.3-0.8,0.3h-1.5
			c-0.3,0-0.6-0.1-0.8-0.3c-0.2-0.2-0.3-0.4-0.3-0.7v-1.7c0-0.1,0-0.3,0.1-0.4c0.1-0.1,0.2-0.3,0.4-0.5l0.9-1
			c0.1-0.1,0.2-0.2,0.4-0.3C166.4,50.1,166.6,50.1,166.8,50.1L166.8,50.1z M180.1,50.1c0.1,0,0.2,0,0.3,0.1c0.1,0.1,0.1,0.1,0.1,0.2
			c0,0.1,0,0.2-0.1,0.2c-0.1,0.1-0.2,0.1-0.3,0.1H179v3.6h1.1c0.1,0,0.2,0,0.3,0.1c0.1,0.1,0.1,0.1,0.1,0.2c0,0.1,0,0.2-0.1,0.2
			c-0.1,0.1-0.2,0.1-0.3,0.1h-3c-0.1,0-0.2,0-0.3-0.1c-0.1-0.1-0.1-0.1-0.1-0.2c0-0.1,0-0.2,0.1-0.2c0.1-0.1,0.2-0.1,0.3-0.1h1.1
			v-3.6h-1.1c-0.1,0-0.2,0-0.3-0.1c-0.1-0.1-0.1-0.1-0.1-0.2c0-0.1,0-0.2,0.1-0.2c0.1-0.1,0.2-0.1,0.3-0.1H180.1L180.1,50.1z
			 M188.8,50.1h3.9v0.8c0,0.1,0,0.2-0.1,0.3c-0.1,0.1-0.2,0.1-0.3,0.1c-0.1,0-0.2,0-0.3-0.1c-0.1-0.1-0.1-0.2-0.1-0.3v-0.2h-0.8v3.9
			c0,0.1,0,0.2-0.1,0.3c-0.1,0.1-0.2,0.1-0.3,0.1c-0.1,0-0.2,0-0.3-0.1c-0.1-0.1-0.1-0.2-0.1-0.3v-3.9h-0.8v0.2c0,0.1,0,0.2-0.1,0.3
			c-0.1,0.1-0.2,0.1-0.3,0.1c-0.1,0-0.2,0-0.3-0.1c-0.1-0.1-0.1-0.2-0.1-0.3V50.1z M141.9,50.7h-0.3v3.6h0.3c0.1,0,0.2,0,0.2-0.1
			c0.1,0,0.1-0.1,0.2-0.1l0.1-0.2v0.9c-0.1,0.1-0.3,0.1-0.5,0.1h-1.4c-0.1,0-0.2,0-0.3-0.1c-0.1-0.1-0.1-0.1-0.1-0.2
			c0-0.1,0-0.2,0.1-0.2c0.1-0.1,0.2-0.1,0.3-0.1h0.3v-3.6h-0.3c-0.1,0-0.2,0-0.3-0.1c-0.1-0.1-0.1-0.1-0.1-0.2c0-0.1,0-0.2,0.1-0.2
			c0.1-0.1,0.2-0.1,0.3-0.1h1.4c0.2,0,0.4,0,0.5,0.1v1l-0.1-0.2c0-0.1-0.1-0.1-0.2-0.1C142.1,50.7,142,50.7,141.9,50.7z"/>
	</g>
</g>
</svg>
