<?xml version="1.0" encoding="utf-8"?>
<!-- Generator: Adobe Illustrator 21.0.0, SVG Export Plug-In . SVG Version: 6.00 Build 0)  -->
<svg version="1.1" id="Layer_1" xmlns="http://www.w3.org/2000/svg" xmlns:xlink="http://www.w3.org/1999/xlink" x="0px" y="0px"
	 viewBox="0 0 401 163" style="enable-background:new 0 0 401 163;" xml:space="preserve">
<style type="text/css">
	.st0{fill-rule:evenodd;clip-rule:evenodd;fill:#2E3191;}
	.st1{fill-rule:evenodd;clip-rule:evenodd;fill:url(#SVGID_1_);}
	.st2{fill-rule:evenodd;clip-rule:evenodd;fill:#B8E4FA;}
	.st3{fill-rule:evenodd;clip-rule:evenodd;fill:#F9D4E4;}
	.st4{fill-rule:evenodd;clip-rule:evenodd;fill:#EB008B;}
	.st5{fill-rule:evenodd;clip-rule:evenodd;fill:#000010;}
	.st6{fill-rule:evenodd;clip-rule:evenodd;fill:#FFF100;}
	.st7{fill-rule:evenodd;clip-rule:evenodd;fill:#00ADEE;}
	.st8{fill-rule:evenodd;clip-rule:evenodd;fill:#FFFFFF;}
</style>
<g>
	<path class="st0" d="M81.3,64.5h32.3v12h-12.9v11.4h12.1v11.3h-12.1v13.2h14.2v12H81.3V64.5L81.3,64.5z M161.4,82.6h-18v-4.4
		c0-2.1-0.2-3.4-0.7-4c-0.5-0.6-1.2-0.8-2.3-0.8c-1.2,0-2,0.4-2.6,1.1c-0.6,0.8-0.9,1.9-0.9,3.5c0,2,0.3,3.5,1,4.5
		c0.7,1,2.5,2.2,5.5,3.7c8.6,4.1,14,7.5,16.2,10.1c2.2,2.6,3.4,6.9,3.4,12.7c0,4.3-0.6,7.4-1.9,9.4c-1.2,2-3.6,3.7-7.2,5.1
		c-3.5,1.4-7.7,2.1-12.4,2.1c-5.2,0-9.6-0.8-13.3-2.4c-3.7-1.6-6-3.6-7.2-6c-1.1-2.4-1.7-5.9-1.7-10.4v-3.9h18v7.3
		c0,2.2,0.3,3.7,0.8,4.3c0.5,0.6,1.4,1,2.7,1c1.3,0,2.2-0.4,2.9-1.2c0.6-0.8,0.9-2,0.9-3.6c0-3.5-0.6-5.8-1.8-6.9
		c-1.2-1.1-4.3-2.9-9.1-5.4c-4.8-2.6-8-4.4-9.5-5.6c-1.6-1.2-2.9-2.8-3.9-4.8c-1-2-1.5-4.7-1.5-7.8c0-4.6,0.7-7.9,2.2-10
		c1.5-2.1,3.8-3.8,7-5c3.2-1.2,7.2-1.8,11.8-1.8c5,0,9.3,0.7,12.8,2c3.5,1.3,5.9,3,7,4.9c1.1,2,1.7,5.3,1.7,10.1V82.6L161.4,82.6z
		 M208.1,64.5v12h-11.4v47.9h-19.4V76.4h-11.5v-12H208.1L208.1,64.5z M242.2,64.5h-28l-9.8,59.8h20l1.1-10.7h7l1.1,10.7h19.8
		L242.2,64.5L242.2,64.5z M231.9,103h-6.6c0.5-5.3,1.7-13.7,3.6-25.2C230,87.8,231,96.2,231.9,103L231.9,103z M280.6,125.4v0.8
		c1.6,0,3.2,0.4,4.5,1.3c1.4,0.9,2.1,2.1,2.1,3.6c0,1.9-0.9,3.5-2.8,4.9c-1.9,1.4-4.2,2.1-6.8,2.1c-4.8,0-7.8-1.9-9.1-5.8h6.8
		c0.4,1,1.2,1.5,2.3,1.5c0.9,0,1.6-0.2,2-0.6c0.4-0.4,0.7-0.9,0.7-1.6c0-0.8-0.3-1.4-0.9-1.8c-0.6-0.4-1.6-0.6-2.9-0.6h-1.2v-3.7
		c-5.3-0.4-9.3-1.6-12.3-3.5c-2.9-1.9-4.8-4.2-5.7-7c-0.8-2.7-1.3-6.7-1.3-11.9V85.6c0-4.3,0.2-7.5,0.6-9.7c0.4-2.2,1.5-4.2,3.3-6.2
		c1.8-2,4.3-3.6,7.6-4.7c3.2-1.1,7-1.7,11.2-1.7c5.7,0,10.4,0.9,14.1,2.7c3.7,1.8,6.1,4,7.3,6.6c1.2,2.6,1.7,6.8,1.7,12.3v5.7h-19.4
		V80.2c0-3-0.2-4.9-0.6-5.7c-0.4-0.7-1.3-1.1-2.7-1.1c-1.6,0-2.6,0.5-3,1.4c-0.4,0.9-0.6,2.9-0.6,5.9v27.8c0,2.9,0.2,4.8,0.6,5.7
		c0.4,0.9,1.4,1.3,2.9,1.3c1.4,0,2.4-0.4,2.8-1.3c0.4-0.9,0.7-3,0.7-6.3v-7.5h19.4v2.3c0,5.7-0.4,9.8-1.3,12.3
		c-0.9,2.5-3,4.8-6.4,6.9C290.7,124,286.2,125.2,280.6,125.4L280.6,125.4z M342.1,64.5l11.1,59.8h-19.8l-1.1-10.7h-7l-1.1,10.7h-20
		l9.8-59.8H342.1L342.1,64.5z M331.8,103c-0.9-6.8-1.9-15.2-2.9-25.2c-1.9,11.5-3.1,19.9-3.6,25.2H331.8L331.8,103z M347.7,55.6
		c-1.4,2.5-3.2,4.2-5.2,5.2c-2.1,1-3.9,1.5-5.4,1.5c-2.2,0-4.5-0.4-7-1.2l-3.4-1.1c-2.2-0.7-3.8-1.1-4.9-1.1c-2.3,0-4.1,1.2-5.6,3.7
		l-7.3-3.9c3.4-4.8,7.2-7.1,11.4-7.1c2.2,0,4.6,0.4,7.2,1.2l2.9,0.8c2.4,0.7,4,1.1,4.9,1.1c2.5,0,4.2-1.1,5.1-3.3L347.7,55.6
		L347.7,55.6z M400.7,99.5c0,6-0.2,10.3-0.5,12.8c-0.3,2.5-1.4,4.8-3.3,6.9c-1.9,2.1-4.4,3.7-7.5,4.8c-3.2,1.1-6.8,1.7-11,1.7
		c-4,0-7.6-0.5-10.7-1.6c-3.2-1-5.7-2.6-7.6-4.7c-1.9-2.1-3.1-4.4-3.5-6.8c-0.4-2.5-0.5-6.8-0.5-12.9V89.3c0-6,0.2-10.3,0.5-12.8
		c0.3-2.5,1.4-4.8,3.3-6.9c1.9-2.1,4.4-3.7,7.5-4.8c3.2-1.1,6.8-1.7,11-1.7c4,0,7.5,0.5,10.7,1.6c3.2,1,5.7,2.6,7.6,4.7
		c1.9,2.1,3.1,4.4,3.5,6.8c0.4,2.5,0.6,6.8,0.6,12.9V99.5L400.7,99.5z M381.3,79.9c0-2.8-0.2-4.6-0.6-5.3c-0.4-0.8-1.1-1.2-2.3-1.2
		c-1,0-1.7,0.3-2.3,0.9c-0.5,0.6-0.8,2.5-0.8,5.5v27.9c0,3.5,0.2,5.6,0.5,6.4c0.3,0.8,1.1,1.2,2.4,1.2c1.3,0,2.1-0.5,2.5-1.4
		s0.5-3.2,0.5-6.7V79.9z"/>
	<linearGradient id="SVGID_1_" gradientUnits="userSpaceOnUse" x1="241.0278" y1="81.6992" x2="241.0278" y2="125.542">
		<stop  offset="0" style="stop-color:#D0D2D3"/>
		<stop  offset="1" style="stop-color:#2E3191"/>
	</linearGradient>
	<path class="st1" d="M112.7,88.5v10.7h-12.1v13.2h14.2v12H81.3V89C93.1,90.8,103.1,90.1,112.7,88.5L112.7,88.5z M400.8,88.6
		c-6.3,2.5-12.6,4.2-19.4,5.2v13.5c0,3.5-0.2,5.7-0.5,6.7c-0.4,0.9-1.2,1.4-2.5,1.4c-1.3,0-2.1-0.4-2.5-1.2c-0.3-0.8-0.5-3-0.5-6.4
		V94.6c-4.8,0.5-9.8,0.7-15.3,0.7c-1.4,0-2.7,0-4.1-0.1v4.4c0,6.2,0.2,10.5,0.5,12.9c0.4,2.5,1.5,4.7,3.5,6.8
		c1.9,2.1,4.5,3.7,7.7,4.7c2.8,0.9,5.9,1.4,9.4,1.6h2.7c3.6-0.1,6.8-0.7,9.6-1.6c3.2-1.1,5.7-2.7,7.5-4.8c1.9-2.1,3-4.4,3.3-6.9
		c0.3-2.5,0.5-6.7,0.5-12.8V89.3L400.8,88.6L400.8,88.6z M347.7,94.2c-5.9-1-11.6-2.4-17.4-4c0.5,4.7,1.1,9,1.6,12.7h-6.6
		c0.3-3.3,0.9-7.9,1.8-13.6c-5.4-1.4-10.8-2.9-16.4-3.9l-6.4,38.8h20l1.1-10.8h7l1,10.8h19.8L347.7,94.2L347.7,94.2z M301.8,84.3
		c-3.7-0.3-7.5-0.4-11.4-0.1c-2.7,0.2-5.3,0.5-7.9,1v5.4h19.4v-5.7C301.8,84.7,301.8,84.5,301.8,84.3L301.8,84.3z M275.4,86.6v21.8
		c0,2.9,0.2,4.8,0.6,5.7c0.4,0.9,1.4,1.3,2.9,1.3c1.4,0,2.4-0.4,2.8-1.3c0.4-0.9,0.7-3,0.7-6.2v-7.5h19.4v2.3
		c0,5.7-0.4,9.9-1.3,12.4c-0.9,2.5-3,4.8-6.4,6.9c-3.4,2.1-7.9,3.3-13.5,3.6v0h-5.4v-0.2c-5.2-0.4-9.3-1.6-12.3-3.5
		c-2.9-1.9-4.8-4.2-5.7-7c-0.8-2.7-1.3-6.7-1.3-11.9V91.7C262.4,90,268.9,88.1,275.4,86.6L275.4,86.6z M247.6,93.7
		c-5.4,1.1-10.7,1.8-16.1,1.6c-0.2,0-0.4,0-0.6,0c0.3,2.8,0.7,5.3,1,7.7h-6.6c0.2-2.1,0.5-4.8,1-8c-5.9-0.5-11.4-1.6-16.6-2.9
		l-5.3,32.2h20l1.1-10.8h7l1,10.8h19.8L247.6,93.7L247.6,93.7z M196.6,88.4c-6.3-1.9-12.6-3.8-19.4-5v40.9h19.4V88.4L196.6,88.4z
		 M161.4,81.8c-5.7-0.1-10.9,0.2-15.9,0.8h15.9V81.8L161.4,81.8z M138.9,83.5c-6.6,1-12.7,2.4-18.9,3.6c0.1,0.3,0.2,0.5,0.3,0.7
		c1,2,2.3,3.6,3.9,4.8c1.6,1.2,4.8,3,9.6,5.6c4.8,2.5,7.8,4.3,9.1,5.4c1.2,1.1,1.8,3.4,1.8,6.9c0,1.6-0.3,2.8-0.9,3.6
		c-0.6,0.8-1.6,1.2-2.9,1.2c-1.3,0-2.2-0.3-2.7-1c-0.5-0.6-0.8-2.1-0.8-4.3v-7.3h-18v3.9c0,4.5,0.6,7.9,1.7,10.4
		c1.1,2.4,3.5,4.4,7.2,6c3.3,1.4,7.3,2.2,11.8,2.4h2.8c4.1-0.1,7.8-0.8,11-2c3.5-1.4,5.9-3.1,7.2-5.1c1.2-2,1.9-5.2,1.9-9.4
		c0-5.9-1.1-10.1-3.4-12.7c-2.2-2.6-7.7-6-16.3-10.1C141.3,85.2,139.8,84.3,138.9,83.5z"/>
	<path class="st2" d="M88.5,32.3c7.6-5.1,13.1-12.5,10-21.1C95.5,2.6,86-1.9,77.5,1.2c-4.5,1.6-7.7,5.1-9.6,9.1
		c-6.1,12.4-3.4,35.1-1.1,48.1c0.6-0.1,1.2-0.2,1.8-0.2C71.1,46.2,82.6,36.2,88.5,32.3z"/>
	<path class="st3" d="M122.5,26.9c-4.3-2.1-9-1.8-13.2-0.4C96.2,31,82.1,48.9,74.5,59.8c0.5,0.3,1,0.7,1.5,1.1
		c10.3-6.7,25.4-5.7,32.4-4.3c9,1.8,18.1,0.4,22-7.8C134.3,40.7,130.7,30.8,122.5,26.9z"/>
	<path class="st4" d="M61.6,61.1c-6.4-10.4-5.1-25.5-3.5-32.5c2-8.9,0.8-18.1-7.3-22.1c-8.1-4.1-18.1-0.8-22.1,7.3
		c-2.1,4.3-2,9-0.7,13.2c4.2,13.2,21.8,27.7,32.5,35.5C60.8,62.1,61.2,61.6,61.6,61.1z"/>
	<path class="st5" d="M48.4,104c-7.7,4.9-13.3,12.2-10.5,20.8c2.9,8.6,12.2,13.3,20.8,10.5c4.5-1.5,7.8-4.9,9.8-8.8
		c6.4-12.2,4.2-34.8,2.2-47.9c-0.6,0.1-1.3,0.2-1.9,0.2C66,90.6,54.4,100.2,48.4,104z"/>
	<path class="st6" d="M61.5,75.7c-10.4,6.4-25.4,5-32.4,3.5c-8.9-2-18-0.8-22.1,7.3c-4.1,8.1-0.8,18,7.3,22.1c4.3,2.1,9,2,13.2,0.7
		c13.2-4.1,27.6-21.7,35.4-32.4C62.4,76.5,61.9,76.1,61.5,75.7z"/>
	<path class="st7" d="M32.9,48C28,40.2,20.7,34.6,12.1,37.5C3.4,40.4-1.2,49.7,1.6,58.3c1.5,4.5,4.9,7.8,8.8,9.8
		c12.3,6.4,35.2,4.2,48.3,2.1c-0.1-0.6-0.2-1.2-0.2-1.8C46.6,65.8,36.8,54,32.9,48z"/>
	<g>
		<path class="st8" d="M90.2,145.6h-1.1v14.7h1.1c0.3,0,0.6-0.1,0.9-0.2c0.3-0.1,0.5-0.3,0.6-0.6l3.3-5.4c0.1-0.2,0.2-0.4,0.2-0.6
			c0.1-0.2,0.1-0.4,0.1-0.7c0-0.2,0-0.4-0.1-0.6c-0.1-0.2-0.1-0.4-0.2-0.6l-3.3-5.3c-0.2-0.3-0.4-0.4-0.7-0.6
			C90.8,145.6,90.5,145.6,90.2,145.6L90.2,145.6z M90.2,143c1,0,1.9,0.2,2.6,0.6c0.7,0.4,1.4,1,1.9,1.8l3.3,5.3
			c0.2,0.3,0.3,0.6,0.4,1c0.1,0.4,0.1,0.8,0.1,1.2c0,0.4-0.1,0.8-0.1,1.2c-0.1,0.4-0.2,0.7-0.4,1l-3.3,5.3c-0.5,0.8-1.1,1.4-1.9,1.8
			c-0.7,0.4-1.6,0.6-2.6,0.6h-5.7c-0.5,0-1-0.1-1.3-0.4c-0.3-0.2-0.5-0.6-0.5-0.9c0-0.4,0.2-0.7,0.5-0.9c0.3-0.2,0.8-0.4,1.3-0.4
			h1.4v-14.7h-1.4c-0.5,0-1-0.1-1.3-0.4c-0.3-0.2-0.5-0.6-0.5-0.9c0-0.4,0.2-0.7,0.5-0.9c0.3-0.2,0.8-0.4,1.3-0.4H90.2L90.2,143z
			 M146.5,143c0.5,0,1,0.1,1.3,0.4c0.3,0.2,0.5,0.6,0.5,0.9c0,0.4-0.2,0.7-0.5,0.9c-0.3,0.2-0.8,0.4-1.3,0.4H142v14.7h4.5
			c0.5,0,1,0.1,1.3,0.4c0.3,0.2,0.5,0.6,0.5,0.9c0,0.4-0.2,0.7-0.5,0.9c-0.3,0.2-0.8,0.4-1.3,0.4h-12.3c-0.5,0-1-0.1-1.3-0.4
			c-0.3-0.2-0.5-0.6-0.5-0.9c0-0.4,0.2-0.7,0.5-0.9c0.3-0.2,0.8-0.4,1.3-0.4h4.5v-14.7h-4.5c-0.5,0-1-0.1-1.3-0.4
			c-0.3-0.2-0.5-0.6-0.5-0.9c0-0.4,0.2-0.7,0.5-0.9c0.3-0.2,0.8-0.4,1.3-0.4H146.5L146.5,143z M191.6,143h4.6c0.5,0,1,0.1,1.3,0.4
			c0.3,0.2,0.5,0.6,0.5,0.9c0,0.4-0.2,0.7-0.5,0.9c-0.3,0.2-0.8,0.4-1.3,0.4h-4.6c-0.2,0-0.4,0-0.7,0.1c-0.2,0.1-0.4,0.2-0.5,0.3
			l-4.1,4.3c-0.4,0.4-0.6,0.7-0.8,1c-0.1,0.3-0.2,0.5-0.2,0.8v6.9c0,0.3,0.2,0.6,0.5,0.9c0.3,0.3,0.7,0.4,1.1,0.4h6.2
			c0.4,0,0.8-0.1,1.1-0.4c0.3-0.3,0.5-0.6,0.5-0.9v-2.6h-2.9c-0.5,0-1-0.1-1.3-0.4c-0.3-0.2-0.5-0.5-0.5-0.9c0-0.4,0.2-0.7,0.5-0.9
			s0.8-0.4,1.3-0.4h6.2v5.2c0,1.1-0.5,2-1.4,2.7c-0.9,0.8-2.1,1.1-3.4,1.1h-6.2c-1.3,0-2.5-0.4-3.4-1.1c-1-0.8-1.4-1.7-1.4-2.7v-6.9
			c0-0.6,0.1-1.1,0.4-1.7c0.2-0.5,0.7-1.2,1.5-2l3.7-4c0.4-0.4,1-0.8,1.7-1.1C190.2,143.1,190.9,143,191.6,143L191.6,143z M246,143
			c0.5,0,1,0.1,1.3,0.4c0.3,0.2,0.5,0.6,0.5,0.9c0,0.4-0.2,0.7-0.5,0.9c-0.3,0.2-0.8,0.4-1.3,0.4h-4.5v14.7h4.5c0.5,0,1,0.1,1.3,0.4
			c0.3,0.2,0.5,0.6,0.5,0.9c0,0.4-0.2,0.7-0.5,0.9c-0.3,0.2-0.8,0.4-1.3,0.4h-12.3c-0.5,0-1-0.1-1.3-0.4c-0.3-0.2-0.5-0.6-0.5-0.9
			c0-0.4,0.2-0.7,0.5-0.9c0.3-0.2,0.8-0.4,1.3-0.4h4.5v-14.7h-4.5c-0.5,0-1-0.1-1.3-0.4c-0.3-0.2-0.5-0.6-0.5-0.9
			c0-0.4,0.2-0.7,0.5-0.9c0.3-0.2,0.8-0.4,1.3-0.4H246L246,143z M281.7,143h15.9v3.3c0,0.4-0.1,0.8-0.4,1c-0.3,0.3-0.7,0.4-1.2,0.4
			c-0.5,0-0.9-0.1-1.2-0.4c-0.3-0.3-0.4-0.6-0.4-1v-0.7h-3.1v15.9c0,0.4-0.1,0.8-0.4,1c-0.3,0.3-0.7,0.4-1.2,0.4
			c-0.5,0-0.9-0.1-1.2-0.4c-0.3-0.3-0.4-0.6-0.4-1v-15.9h-3.1v0.7c0,0.4-0.1,0.8-0.4,1c-0.3,0.3-0.7,0.4-1.2,0.4
			c-0.5,0-0.9-0.1-1.2-0.4c-0.3-0.3-0.4-0.6-0.4-1V143L281.7,143z M339.3,148.9l-2.6,7.1h5.2L339.3,148.9L339.3,148.9z M341.1,144.4
			l6.1,16.7c0,0.1,0.1,0.2,0.1,0.3c0,0.1,0,0.2,0,0.2c0,0.3-0.2,0.6-0.5,0.9c-0.3,0.2-0.7,0.4-1.1,0.4c-0.4,0-0.7-0.1-1-0.3
			c-0.3-0.2-0.5-0.5-0.6-0.8l-1.2-3.3h-7l-1.2,3.2c-0.2,0.4-0.4,0.6-0.6,0.8c-0.3,0.2-0.6,0.3-1,0.3c-0.4,0-0.8-0.1-1.1-0.4
			c-0.3-0.2-0.5-0.5-0.5-0.9c0-0.1,0-0.3,0-0.3c0-0.1,0-0.1,0.1-0.2l6.1-16.7c0.2-0.5,0.4-0.9,0.7-1.1c0.3-0.2,0.6-0.3,1.1-0.3
			c0.4,0,0.8,0.1,1,0.3C340.6,143.5,340.9,143.9,341.1,144.4L341.1,144.4z M384.4,144.4v15.9h10.9c0.5,0,1,0.1,1.3,0.4
			c0.3,0.2,0.5,0.6,0.5,0.9c0,0.4-0.2,0.7-0.5,0.9c-0.3,0.2-0.8,0.4-1.3,0.4h-14.1v-18.4c0-0.4,0.1-0.8,0.4-1
			c0.3-0.3,0.7-0.4,1.2-0.4c0.5,0,0.8,0.1,1.2,0.4C384.2,143.7,384.4,144,384.4,144.4z"/>
		<path class="st8" d="M339.3,158.5V156h2.6l-2.6-7.1l0,0.1V143h0c0.4,0,0.8,0.1,1,0.3c0.3,0.2,0.5,0.6,0.7,1.1l6.1,16.7
			c0,0.1,0.1,0.2,0.1,0.3c0,0.1,0,0.2,0,0.2c0,0.3-0.2,0.6-0.5,0.9c-0.3,0.2-0.7,0.4-1.1,0.4c-0.4,0-0.7-0.1-1-0.3
			c-0.3-0.2-0.5-0.5-0.6-0.8l-1.2-3.3H339.3L339.3,158.5z M384.4,144.4v15.9h10.9c0.5,0,1,0.1,1.3,0.4c0.3,0.2,0.5,0.6,0.5,0.9
			c0,0.4-0.2,0.7-0.5,0.9c-0.3,0.2-0.8,0.4-1.3,0.4h-14.1v-18.4c0-0.4,0.1-0.8,0.4-1c0.3-0.3,0.7-0.4,1.2-0.4c0.5,0,0.8,0.1,1.2,0.4
			C384.2,143.7,384.4,144,384.4,144.4z M92.2,158.7l2.8-4.5c0.1-0.2,0.2-0.4,0.2-0.6c0.1-0.2,0.1-0.4,0.1-0.7c0-0.2,0-0.4-0.1-0.6
			c-0.1-0.2-0.1-0.4-0.2-0.6l-2.8-4.5v-3.9c0.2,0.1,0.4,0.2,0.6,0.3c0.7,0.4,1.4,1,1.9,1.8l3.3,5.3c0.2,0.3,0.3,0.6,0.4,1
			c0.1,0.4,0.1,0.8,0.1,1.2c0,0.4-0.1,0.8-0.1,1.2c-0.1,0.4-0.2,0.7-0.4,1l-3.3,5.3c-0.5,0.8-1.1,1.4-1.9,1.8
			c-0.2,0.1-0.4,0.2-0.6,0.3V158.7L92.2,158.7z M339.3,143v5.9l-2.6,7h2.6v2.6h-3.5l-1.2,3.2c-0.2,0.4-0.4,0.6-0.6,0.8
			c-0.3,0.2-0.6,0.3-1,0.3c-0.4,0-0.8-0.1-1.1-0.4c-0.3-0.2-0.5-0.5-0.5-0.9c0-0.1,0-0.3,0-0.3c0-0.1,0-0.1,0.1-0.2l6.1-16.7
			c0.2-0.5,0.4-0.9,0.7-1.1C338.5,143.1,338.9,143,339.3,143L339.3,143z M146.5,143c0.5,0,1,0.1,1.3,0.4c0.3,0.2,0.5,0.6,0.5,0.9
			c0,0.4-0.2,0.7-0.5,0.9c-0.3,0.2-0.8,0.4-1.3,0.4H142v14.7h4.5c0.5,0,1,0.1,1.3,0.4c0.3,0.2,0.5,0.6,0.5,0.9
			c0,0.4-0.2,0.7-0.5,0.9c-0.3,0.2-0.8,0.4-1.3,0.4h-12.3c-0.5,0-1-0.1-1.3-0.4c-0.3-0.2-0.5-0.6-0.5-0.9c0-0.4,0.2-0.7,0.5-0.9
			c0.3-0.2,0.8-0.4,1.3-0.4h4.5v-14.7h-4.5c-0.5,0-1-0.1-1.3-0.4c-0.3-0.2-0.5-0.6-0.5-0.9c0-0.4,0.2-0.7,0.5-0.9
			c0.3-0.2,0.8-0.4,1.3-0.4H146.5L146.5,143z M191.6,143h4.6c0.5,0,1,0.1,1.3,0.4c0.3,0.2,0.5,0.6,0.5,0.9c0,0.4-0.2,0.7-0.5,0.9
			c-0.3,0.2-0.8,0.4-1.3,0.4h-4.6c-0.2,0-0.4,0-0.7,0.1c-0.2,0.1-0.4,0.2-0.5,0.3l-4.1,4.3c-0.4,0.4-0.6,0.7-0.8,1
			c-0.1,0.3-0.2,0.5-0.2,0.8v6.9c0,0.3,0.2,0.6,0.5,0.9c0.3,0.3,0.7,0.4,1.1,0.4h6.2c0.4,0,0.8-0.1,1.1-0.4c0.3-0.3,0.5-0.6,0.5-0.9
			v-2.6h-2.9c-0.5,0-1-0.1-1.3-0.4c-0.3-0.2-0.5-0.5-0.5-0.9c0-0.4,0.2-0.7,0.5-0.9s0.8-0.4,1.3-0.4h6.2v5.2c0,1.1-0.5,2-1.4,2.7
			c-0.9,0.8-2.1,1.1-3.4,1.1h-6.2c-1.3,0-2.5-0.4-3.4-1.1c-1-0.8-1.4-1.7-1.4-2.7v-6.9c0-0.6,0.1-1.1,0.4-1.7c0.2-0.5,0.7-1.2,1.5-2
			l3.7-4c0.4-0.4,1-0.8,1.7-1.1C190.2,143.1,190.9,143,191.6,143L191.6,143z M246,143c0.5,0,1,0.1,1.3,0.4c0.3,0.2,0.5,0.6,0.5,0.9
			c0,0.4-0.2,0.7-0.5,0.9c-0.3,0.2-0.8,0.4-1.3,0.4h-4.5v14.7h4.5c0.5,0,1,0.1,1.3,0.4c0.3,0.2,0.5,0.6,0.5,0.9
			c0,0.4-0.2,0.7-0.5,0.9c-0.3,0.2-0.8,0.4-1.3,0.4h-12.3c-0.5,0-1-0.1-1.3-0.4c-0.3-0.2-0.5-0.6-0.5-0.9c0-0.4,0.2-0.7,0.5-0.9
			c0.3-0.2,0.8-0.4,1.3-0.4h4.5v-14.7h-4.5c-0.5,0-1-0.1-1.3-0.4c-0.3-0.2-0.5-0.6-0.5-0.9c0-0.4,0.2-0.7,0.5-0.9
			c0.3-0.2,0.8-0.4,1.3-0.4H246L246,143z M281.7,143h15.9v3.3c0,0.4-0.1,0.8-0.4,1c-0.3,0.3-0.7,0.4-1.2,0.4c-0.5,0-0.9-0.1-1.2-0.4
			c-0.3-0.3-0.4-0.6-0.4-1v-0.7h-3.1v15.9c0,0.4-0.1,0.8-0.4,1c-0.3,0.3-0.7,0.4-1.2,0.4c-0.5,0-0.9-0.1-1.2-0.4
			c-0.3-0.3-0.4-0.6-0.4-1v-15.9h-3.1v0.7c0,0.4-0.1,0.8-0.4,1c-0.3,0.3-0.7,0.4-1.2,0.4c-0.5,0-0.9-0.1-1.2-0.4
			c-0.3-0.3-0.4-0.6-0.4-1V143z M90.2,145.6h-1.1v14.7h1.1c0.3,0,0.6-0.1,0.9-0.2c0.3-0.1,0.5-0.3,0.6-0.6l0.5-0.8v3.9
			c-0.6,0.2-1.3,0.3-2,0.3h-5.7c-0.5,0-1-0.1-1.3-0.4c-0.3-0.2-0.5-0.6-0.5-0.9c0-0.4,0.2-0.7,0.5-0.9c0.3-0.2,0.8-0.4,1.3-0.4h1.4
			v-14.7h-1.4c-0.5,0-1-0.1-1.3-0.4c-0.3-0.2-0.5-0.6-0.5-0.9c0-0.4,0.2-0.7,0.5-0.9c0.3-0.2,0.8-0.4,1.3-0.4h5.7
			c0.8,0,1.4,0.1,2,0.3v3.9l-0.5-0.8c-0.2-0.3-0.4-0.4-0.7-0.6C90.8,145.6,90.5,145.6,90.2,145.6z"/>
	</g>
</g>
</svg>
